<svg xmlns="http://www.w3.org/2000/svg" xmlns:svg="http://www.w3.org/2000/svg" id="svg3342" width="37.7" height="47" x="0" y="0" enable-background="new 0 0 48 48" version="1.1" viewBox="0 0 37.7 47" xml:space="preserve"><metadata id="metadata3374"/><g id="g3344" transform="translate(-5.2,-0.5)"><path id="path3346" fill="#000" d="m 32.7,38.6 c -0.6,0 -1,0.2 -1.3,0.7 -0.3,0.5 -0.4,1.1 -0.4,1.9 0,0.8 0.1,1.4 0.4,1.9 0.3,0.5 0.7,0.7 1.3,0.7 0.6,0 1,-0.2 1.3,-0.7 0.3,-0.5 0.4,-1.1 0.4,-1.9 0,-0.8 -0.1,-1.4 -0.4,-1.9 -0.3,-0.5 -0.7,-0.7 -1.3,-0.7 z"/><path id="path3348" fill="#000" d="m 32.7,29.2 c -0.6,0 -1,0.2 -1.3,0.7 -0.2,0.4 -0.4,1.1 -0.4,1.8 0,0.8 0.1,1.4 0.4,1.9 0.3,0.5 0.7,0.7 1.3,0.7 0.6,0 1,-0.2 1.3,-0.7 0.3,-0.5 0.4,-1.1 0.4,-1.9 0,-0.8 -0.1,-1.4 -0.4,-1.9 -0.3,-0.4 -0.7,-0.6 -1.3,-0.6 z"/><path id="path3350" fill="#000" d="m 22.1,29.2 c -0.6,0 -1,0.2 -1.3,0.7 -0.3,0.5 -0.4,1.1 -0.4,1.9 0,0.8 0.1,1.4 0.4,1.9 0.3,0.5 0.7,0.7 1.3,0.7 0.6,0 1,-0.2 1.3,-0.7 0.3,-0.5 0.4,-1.1 0.4,-1.9 0,-0.8 -0.1,-1.4 -0.4,-1.9 -0.3,-0.5 -0.7,-0.7 -1.3,-0.7 z"/><path id="path3352" fill="#000" d="m 25.9,19.4 c -0.6,0 -1,0.2 -1.3,0.7 -0.3,0.5 -0.4,1.1 -0.4,1.9 0,0.8 0.1,1.4 0.4,1.9 0.3,0.5 0.7,0.7 1.3,0.7 0.6,0 1,-0.2 1.3,-0.7 0.3,-0.5 0.4,-1.1 0.4,-1.9 0,-0.8 -0.1,-1.4 -0.4,-1.9 -0.3,-0.5 -0.7,-0.7 -1.3,-0.7 z"/><path id="path3354" fill="#000" d="m 18.3,38.6 c -0.6,0 -1,0.2 -1.3,0.7 -0.3,0.5 -0.4,1.1 -0.4,1.9 0,0.8 0.1,1.4 0.4,1.9 0.3,0.5 0.7,0.7 1.3,0.7 0.6,0 1,-0.2 1.3,-0.7 0.3,-0.5 0.4,-1.1 0.4,-1.9 0,-0.8 -0.1,-1.4 -0.4,-1.9 -0.3,-0.5 -0.7,-0.7 -1.3,-0.7 z"/><path id="path3356" fill="#000" d="m 15.3,24.6 c 0.6,0 1,-0.2 1.3,-0.7 0.3,-0.5 0.4,-1.1 0.4,-1.9 0,-0.8 -0.1,-1.4 -0.4,-1.9 -0.3,-0.5 -0.7,-0.7 -1.3,-0.7 -0.6,0 -1,0.2 -1.3,0.7 -0.3,0.5 -0.4,1.1 -0.4,1.9 0,0.8 0.1,1.4 0.4,1.9 0.3,0.5 0.7,0.7 1.3,0.7 z"/><path id="path3358" fill="#000" d="m 11.5,29.2 c -0.6,0 -1,0.2 -1.3,0.7 -0.3,0.5 -0.4,1.1 -0.4,1.9 0,0.8 0.1,1.4 0.4,1.9 0.3,0.5 0.7,0.7 1.3,0.7 0.6,0 1,-0.2 1.3,-0.7 0.3,-0.5 0.4,-1.1 0.4,-1.9 0,-0.8 -0.1,-1.4 -0.4,-1.9 -0.3,-0.5 -0.7,-0.7 -1.3,-0.7 z"/><path id="path3360" fill="#000" d="m 11.5,38.6 c -0.6,0 -1,0.2 -1.3,0.7 -0.3,0.5 -0.4,1.1 -0.4,1.9 0,0.8 0.1,1.4 0.4,1.9 0.3,0.5 0.7,0.7 1.3,0.7 0.6,0 1,-0.2 1.3,-0.7 0.3,-0.5 0.4,-1.1 0.4,-1.9 0,-0.8 -0.1,-1.4 -0.4,-1.9 -0.3,-0.5 -0.7,-0.7 -1.3,-0.7 z"/><path id="path3362" fill="#000" d="m 32.7,19.4 c -0.6,0 -1,0.2 -1.3,0.7 -0.2,0.5 -0.4,1.1 -0.4,1.9 0,0.8 0.1,1.4 0.4,1.9 0.3,0.5 0.7,0.7 1.3,0.7 0.6,0 1,-0.2 1.3,-0.7 0.3,-0.5 0.4,-1.1 0.4,-1.9 0,-0.8 -0.1,-1.4 -0.4,-1.9 -0.3,-0.5 -0.7,-0.7 -1.3,-0.7 z"/><path id="path3364" fill="#000" d="m 30.4,0.5 -25.2,0 0,47 37.7,0 0,-34.6 L 30.4,0.5 Z M 19,18.6 l 2.5,0 0,6.9 -1.1,0 0,-5.9 -1.4,0 0,-1 z m -5.8,0.8 c 0.5,-0.7 1.2,-1 2.1,-1 0.9,0 1.7,0.3 2.1,1 0.5,0.7 0.7,1.5 0.7,2.6 0,1.1 -0.2,2 -0.7,2.6 -0.5,0.7 -1.2,1 -2.1,1 -0.9,0 -1.7,-0.3 -2.1,-1 -0.5,-0.7 -0.7,-1.5 -0.7,-2.6 -0.1,-1.1 0.2,-2 0.7,-2.6 z m -4.8,-0.8 2.5,0 0,6.9 -1.1,0 0,-5.9 -1.4,0 0,-1 z m 5.2,25.2 c -0.5,0.7 -1.2,1 -2.1,1 -0.9,0 -1.7,-0.3 -2.1,-1 -0.5,-0.7 -0.7,-1.5 -0.7,-2.6 0,-1.1 0.2,-2 0.7,-2.6 0.5,-0.7 1.2,-1 2.1,-1 0.9,0 1.7,0.3 2.1,1 0.5,0.7 0.7,1.5 0.7,2.6 0,1 -0.2,1.9 -0.7,2.6 z m 0,-9.4 c -0.5,0.7 -1.2,1 -2.1,1 -0.9,0 -1.7,-0.3 -2.1,-1 -0.5,-0.7 -0.7,-1.5 -0.7,-2.6 0,-1.1 0.2,-2 0.7,-2.6 0.5,-0.7 1.2,-1 2.1,-1 0.9,0 1.7,0.3 2.1,1 0.5,0.7 0.7,1.5 0.7,2.6 0,1 -0.2,1.9 -0.7,2.6 z m 1.6,-6.1 2.5,0 0,6.9 -1.1,0 0,-5.9 -1.4,0 0,-1 z m 5.3,15.5 c -0.5,0.7 -1.2,1 -2.1,1 -0.9,0 -1.7,-0.3 -2.1,-1 -0.5,-0.7 -0.7,-1.5 -0.7,-2.6 0,-1.1 0.2,-2 0.7,-2.6 0.5,-0.7 1.2,-1 2.1,-1 0.9,0 1.7,0.3 2.1,1 0.5,0.7 0.7,1.5 0.7,2.6 0,1 -0.3,1.9 -0.7,2.6 z m 4.1,0.9 -1.1,0 0,-5.9 -1.5,0 0,-1 2.5,0 0,6.9 z M 24.2,34.4 c -0.5,0.7 -1.2,1 -2.1,1 -0.9,0 -1.7,-0.3 -2.1,-1 -0.5,-0.7 -0.7,-1.5 -0.7,-2.6 0,-1.1 0.2,-2 0.7,-2.6 0.5,-0.7 1.2,-1 2.1,-1 0.9,0 1.7,0.3 2.1,1 0.5,0.7 0.7,1.5 0.7,2.6 0,1 -0.2,1.9 -0.7,2.6 z m 4.1,10.3 -1.1,0 0,-5.9 -1.4,0 0,-1 2.5,0 0,6.9 z m 0,-9.4 -1.1,0 0,-5.9 -1.4,0 0,-1 2.5,0 0,6.9 z M 28,24.6 c -0.5,0.7 -1.2,1 -2.1,1 -0.9,0 -1.7,-0.3 -2.1,-1 -0.5,-0.7 -0.7,-1.5 -0.7,-2.6 0,-1.1 0.2,-2 0.7,-2.6 0.5,-0.7 1.2,-1 2.1,-1 0.9,0 1.7,0.3 2.1,1 0.5,0.7 0.7,1.5 0.7,2.6 0,1.1 -0.2,2 -0.7,2.6 z m 6.8,19.2 c -0.5,0.7 -1.2,1 -2.1,1 -0.9,0 -1.7,-0.3 -2.1,-1 -0.5,-0.7 -0.7,-1.5 -0.7,-2.6 0,-1.1 0.2,-2 0.7,-2.6 0.5,-0.7 1.2,-1 2.1,-1 0.9,0 1.7,0.3 2.1,1 0.5,0.7 0.7,1.5 0.7,2.6 0.1,1 -0.2,1.9 -0.7,2.6 z m 0,-9.4 c -0.5,0.7 -1.2,1 -2.1,1 -0.9,0 -1.7,-0.3 -2.1,-1 -0.5,-0.7 -0.7,-1.5 -0.7,-2.6 0,-1.1 0.2,-2 0.7,-2.6 0.5,-0.7 1.2,-1 2.1,-1 0.9,0 1.7,0.3 2.1,1 0.5,0.7 0.7,1.5 0.7,2.6 0.1,1 -0.2,1.9 -0.7,2.6 z m 0,-9.8 c -0.5,0.7 -1.2,1 -2.1,1 -0.9,0 -1.7,-0.3 -2.1,-1 -0.5,-0.7 -0.7,-1.5 -0.7,-2.6 0,-1.1 0.2,-2 0.7,-2.6 0.5,-0.7 1.2,-1 2.1,-1 0.9,0 1.7,0.3 2.1,1 0.5,0.7 0.7,1.5 0.7,2.6 0.1,1.1 -0.2,2 -0.7,2.6 z m 4.1,20.1 -1.1,0 0,-5.9 -1.4,0 0,-1 2.5,0 0,6.9 z m 0,-9.4 -1.1,0 0,-5.9 -1.4,0 0,-1 2.5,0 0,6.9 z m 0,-9.8 -1.1,0 0,-5.9 -1.4,0 0,-1 2.5,0 0,6.9 z m -9.5,-11.6 0,-12.4 12.4,12.4 -12.4,0 z"/></g></svg>