<svg xmlns="http://www.w3.org/2000/svg" xmlns:svg="http://www.w3.org/2000/svg" id="svg5270" width="90" height="90" x="0" y="0" version="1.1" viewBox="0 0 90 90" xml:space="preserve"><metadata id="metadata5284"/><title id="title5272">BS-Question-Solid-Rounded-Circle</title><path id="path5274" d="M 45,0 C 20.1,0 0,20.1 0,45 0,69.9 20.1,90 45,90 69.9,90 90,69.9 90,45 90,20.1 69.9,0 45,0 Z m 0,70 c -3,0 -5.4,-2.4 -5.4,-5.4 0,-3 2.4,-5.4 5.4,-5.4 0,0 0,0 0,0 3,0 5.4,2.4 5.4,5.4 0,3 -2.4,5.4 -5.4,5.4 z M 57.2,39.6 c -0.6,0.8 -1.3,1.6 -2,2.3 -0.5,0.5 -1.1,1 -1.8,1.8 -0.8,0.7 -1.4,1.3 -1.9,1.9 -0.5,0.5 -1,1 -1.3,1.4 -0.9,1.2 -1.3,2.8 -1.2,4.3 l 0,3.1 -7.8,0 0,-4.2 c -0.1,-1.4 0.1,-2.8 0.7,-4.2 0.8,-1.3 1.7,-2.5 2.9,-3.6 l 5,-5 c 1.1,-1.2 1.6,-2.7 1.6,-4.3 0,-1.6 -0.6,-3.1 -1.7,-4.2 -1.1,-1.1 -2.7,-1.7 -4.3,-1.7 -1.6,-0.1 -3.2,0.5 -4.4,1.6 -1.2,1.1 -1.9,2.7 -2,4.3 l -8.4,0 c 0.3,-3.7 2,-7.2 4.8,-9.6 2.9,-2.4 6.5,-3.6 10.3,-3.5 3.6,-0.2 7.2,1 10,3.3 2.6,2.2 3.9,5.4 3.9,9.4 -0.1,2.5 -0.9,5 -2.4,6.9 z"/></svg>